# xmcd
#
# Track frame offsets: 
#        150
#        18120
#        35194
#        52849
#        70797
#        86610
#        107229
#        129709
#        153400
#        173291
#        193736
#        215829
#        232529
#        251111
#
# Disc length: 3655 seconds
#
# Revision: 0
# Processed by: cddbd v1.5.1PL2 Copyright (c) Steve Scherf et al.
# Submitted via: ExactAudioCopy v0.95b3
#
DISCID=b60e450e
DTITLE=Ray Charles - Genius Loves Company
DYEAR=2005
DGENRE=Crossover
TTITLE0=Here We Go Again
TTITLE1=Sweet Potato Pie
TTITLE2=You Don't Know Me
TTITLE3=Sorry Seems To Be..
TTITLE4=Fever
TTITLE5=Do I Ever Cross Your..
TTITLE6=It Was A Very Good..
TTITLE7=Hey Girl
TTITLE8=Sinner's Prayer
TTITLE9=Heaven Help Us All
TTITLE10=Over The Rainbow
TTITLE11=Crazy Love
TTITLE12=Unchain My Heart
TTITLE13=Mary Ann
EXTD=Monster Music
EXTT0=
EXTT1=
EXTT2=
EXTT3=
EXTT4=
EXTT5=
EXTT6=
EXTT7=
EXTT8=
EXTT9=
EXTT10=
EXTT11=
EXTT12=
EXTT13=
PLAYORDER=
